HIERARCHY
ROOT Hips
{
	OFFSET 0.000000 0.000000 0.000000
	CHANNELS 6 Xposition Yposition Zposition Xrotation Yrotation Zrotation
	JOINT LeftUpLeg_virtual
	{
		OFFSET 0.000000 0.000000 0.000000
		CHANNELS 3 Xrotation Yrotation Zrotation
		JOINT LeftUpLeg
		{
			OFFSET 10.205400 -3.823500 0.155100
			CHANNELS 3 Xrotation Yrotation Zrotation
			JOINT LeftLeg
			{
				OFFSET 0.708757 -12.982077 0.567790
				CHANNELS 3 Xrotation Yrotation Zrotation
				JOINT LeftFoot
				{
					OFFSET -0.708756 -10.717838 -2.184338
					CHANNELS 3 Xrotation Yrotation Zrotation
					JOINT LeftToeBase
					{
						OFFSET 0.108149 -7.191104 7.560241
						CHANNELS 3 Xrotation Yrotation Zrotation
						JOINT LeftToe_End
						{
							OFFSET 0.070230 0.081724 4.490308
							CHANNELS 3 Xrotation Yrotation Zrotation
							End Site
							{
								OFFSET 0 0 0
							}
						}
					}
				}
			}
		}
	}
	JOINT RightUpLeg_virtual
	{
		OFFSET 0.000000 0.000000 0.000000
		CHANNELS 3 Xrotation Yrotation Zrotation
		JOINT RightUpLeg
		{
			OFFSET -10.205400 -3.823500 0.005500
			CHANNELS 3 Xrotation Yrotation Zrotation
			JOINT RightLeg
			{
				OFFSET -0.708756 -12.982134 0.610632
				CHANNELS 3 Xrotation Yrotation Zrotation
				JOINT RightFoot
				{
					OFFSET 0.708754 -10.717769 -1.945823
					CHANNELS 3 Xrotation Yrotation Zrotation
					JOINT RightToeBase
					{
						OFFSET -0.108140 -7.191069 7.372968
						CHANNELS 3 Xrotation Yrotation Zrotation
						JOINT RightToe_End
						{
							OFFSET -0.070227 0.081735 4.479403
							CHANNELS 3 Xrotation Yrotation Zrotation
							End Site
							{
								OFFSET 0 0 0
							}
						}
					}
				}
			}
		}
	}
	JOINT Spine_virtual
	{
		OFFSET 0.000000 0.000000 0.000000
		CHANNELS 3 Xrotation Yrotation Zrotation
		JOINT Spine
		{
			OFFSET 0.000000 6.876099 0.125700
			CHANNELS 3 Xrotation Yrotation Zrotation
			JOINT Spine1
			{
				OFFSET 0.000000 5.730043 0.104720
				CHANNELS 3 Xrotation Yrotation Zrotation
				JOINT Spine1_split
				{
					OFFSET 0.000000 5.730043 0.104720
					CHANNELS 3 Xrotation Yrotation Zrotation
					JOINT Spine2
					{
						OFFSET 0.000000 5.730043 0.104720
						CHANNELS 3 Xrotation Yrotation Zrotation
						JOINT Neck_virtual
						{
							OFFSET 0.000000 0.000000 0.000000
							CHANNELS 3 Xrotation Yrotation Zrotation
							JOINT Neck
							{
								OFFSET 0.000000 10.314075 0.188496
								CHANNELS 3 Xrotation Yrotation Zrotation
								JOINT Head
								{
									OFFSET 0.000000 7.643700 -2.377400
									CHANNELS 3 Xrotation Yrotation Zrotation
									JOINT HeadTop_End
									{
										OFFSET 0.000000 43.788605 -13.619600
										CHANNELS 3 Xrotation Yrotation Zrotation
										End Site
										{
											OFFSET 0 0 0
										}
									}
								}
							}
						}
						JOINT LeftShoulder_virtual
						{
							OFFSET 0.000000 0.000000 0.000000
							CHANNELS 3 Xrotation Yrotation Zrotation
							JOINT LeftShoulder
							{
								OFFSET 2.196100 4.412489 0.087492
								CHANNELS 3 Xrotation Yrotation Zrotation
								JOINT LeftShoulder_split
								{
									OFFSET 2.196100 4.412489 0.087492
									CHANNELS 3 Xrotation Yrotation Zrotation
									JOINT LeftArm
									{
										OFFSET 8.771219 -2.981674 -0.026999
										CHANNELS 3 Xrotation Yrotation Zrotation
										JOINT LeftForeArm
										{
											OFFSET 8.512804 0.000000 -0.000000
											CHANNELS 3 Xrotation Yrotation Zrotation
											JOINT LeftHand
											{
												OFFSET 18.484802 0.000000 -0.000000
												CHANNELS 3 Xrotation Yrotation Zrotation
												End Site
												{
													OFFSET 0 0 0
												}
											}
										}
									}
								}
							}
						}
						JOINT RightShoulder_virtual
						{
							OFFSET 0.000000 0.000000 0.000000
							CHANNELS 3 Xrotation Yrotation Zrotation
							JOINT RightShoulder
							{
								OFFSET -2.196100 4.412496 0.070690
								CHANNELS 3 Xrotation Yrotation Zrotation
								JOINT RightShoulder_split
								{
									OFFSET -2.196100 4.412496 0.070690
									CHANNELS 3 Xrotation Yrotation Zrotation
									JOINT RightArm
									{
										OFFSET -8.771282 -2.981682 -0.094208
										CHANNELS 3 Xrotation Yrotation Zrotation
										JOINT RightForeArm
										{
											OFFSET -8.494598 0.000000 0.000000
											CHANNELS 3 Xrotation Yrotation Zrotation
											JOINT RightHand
											{
												OFFSET -18.483803 0.000000 0.000001
												CHANNELS 3 Xrotation Yrotation Zrotation
												End Site
												{
													OFFSET 0 0 0
												}
											}
										}
									}
								}
							}
						}
					}
				}
			}
		}
	}
}
MOTION
Frames: 9
Frame Time: 0.03333333
6.644477 13.267691 162.966553 0.000000 0.000000 0.000000 39.495524 -45.347050 81.062755 -61.095209 -8.845348 15.648935 34.936056 -9.026712 5.803806 -2.112714 11.539982 -30.217829 3.658694 3.214616 -16.195943 0.000000 0.000000 0.000000 41.086347 -51.306329 88.037471 -106.588790 -2.690212 -28.069972 121.575919 12.799926 -2.479211 72.672605 37.116109 57.801384 10.719655 -2.792881 15.875696 0.000000 0.000000 0.000000 47.961257 -52.804052 87.288479 8.137444 -9.963172 -3.871223 22.367440 -11.313041 -0.024919 -1.065705 2.356319 -0.628851 0.000000 0.000000 0.000000 16.658295 -12.510305 -0.153933 14.051899 3.065430 -6.682865 -7.891690 25.785571 -19.181225 0.000000 0.000000 0.000000 21.191966 -12.243888 1.333492 1.193486 -1.560071 -20.101409 -2.175261 0.198427 1.931913 6.619523 2.526850 -57.007375 29.206555 -15.765528 -4.551200 0.000000 0.000000 0.000000 20.704161 -12.697650 -0.126690 4.101350 22.142106 3.434907 5.876039 8.593378 7.115409 -31.964537 -8.852897 -0.614865 -27.394883 19.047936 4.003334 0.000000 0.000000 0.000000 
6.579006 13.792956 168.589279 0.000000 0.000000 0.000000 39.168413 -44.291478 76.863903 -67.624624 -10.421791 17.385266 37.831096 -10.141654 0.307277 -1.195922 11.592804 -34.591264 3.796503 3.244960 -17.737646 0.000000 0.000000 0.000000 38.637239 -49.801815 82.058487 -107.699994 3.879641 -37.420807 121.648169 19.036791 -4.592985 70.324604 44.823062 65.480416 9.244481 -3.979439 15.828642 0.000000 0.000000 0.000000 45.237651 -52.596859 81.216591 9.179615 -8.491545 -3.382272 22.234931 -9.206120 -0.209644 -1.416344 2.267683 -0.432852 0.000000 0.000000 0.000000 16.534652 -10.367086 -0.543878 11.587712 3.210360 -4.899135 -11.299074 25.476701 -15.873498 0.000000 0.000000 0.000000 20.556916 -10.099041 0.716151 1.024810 -1.692185 -20.457766 -1.321622 0.628584 2.451181 10.049991 3.875434 -56.822905 30.756926 -16.051486 -5.134607 0.000000 0.000000 0.000000 20.423734 -10.440742 -0.381913 3.388571 22.247516 4.770715 5.987113 7.668912 7.628266 -34.225928 -11.437086 2.316143 -28.279980 17.376088 2.653287 0.000000 0.000000 0.000000 
6.384390 14.262462 173.970001 0.000000 0.000000 0.000000 37.193351 -43.721291 70.755036 -75.295705 -10.425302 19.958395 44.224416 -11.060052 -5.640196 -2.438781 10.712749 -33.274732 3.696961 3.281252 -18.622436 0.000000 0.000000 0.000000 35.728224 -48.938360 74.121875 -105.735686 8.774738 -45.675309 120.943580 24.165356 -5.784220 65.912814 47.581437 73.436541 9.500400 -4.872309 14.460989 0.000000 0.000000 0.000000 40.522153 -52.013943 72.937029 10.210085 -6.523658 -2.998323 21.475966 -6.876047 -0.727032 -1.151130 2.361580 0.167470 0.000000 0.000000 0.000000 16.111694 -8.002047 -1.235121 8.056179 3.353983 -2.975618 -14.872399 24.556465 -12.380292 0.000000 0.000000 0.000000 19.445475 -7.745351 -0.332702 0.828861 -1.645463 -20.606493 0.247526 -0.724789 2.458605 14.049099 5.180720 -54.446713 32.172773 -18.088346 -4.887364 0.000000 0.000000 0.000000 19.709993 -7.861650 -0.988544 2.596319 21.530647 6.531766 6.777034 7.195317 7.146828 -34.024246 -16.594332 10.529891 -28.777346 20.216540 2.772272 0.000000 0.000000 0.000000 
6.023048 14.678886 179.139420 0.000000 0.000000 0.000000 33.464809 -43.470712 62.491238 -84.543528 -9.811047 24.148885 55.624651 -13.396275 -10.586860 -2.228079 7.129939 -28.971449 1.183981 3.723739 -18.218785 0.000000 0.000000 0.000000 31.402136 -48.248904 63.862439 -100.195064 9.467264 -52.473048 118.960858 27.687015 -4.981438 59.978951 44.328966 80.874358 12.978495 -5.188751 12.636352 0.000000 0.000000 0.000000 34.337618 -50.530860 62.925160 11.007950 -4.491788 -2.676950 20.161904 -4.814805 -1.390150 -0.685008 2.809635 0.945523 0.000000 0.000000 0.000000 15.453899 -5.892793 -2.033695 3.953484 3.730440 -1.292324 -18.054131 23.804963 -9.203833 0.000000 0.000000 0.000000 18.050242 -5.667411 -1.549182 0.709429 -1.354999 -20.172318 2.322617 -2.982196 2.082328 17.700102 6.577148 -49.366541 33.185058 -21.443437 -3.967855 0.000000 0.000000 0.000000 18.679966 -5.458138 -1.739793 1.903594 20.213192 8.195180 8.208322 7.368627 6.410311 -28.817408 -22.984929 24.246722 -28.991619 27.751716 4.445952 0.000000 0.000000 0.000000 
5.474108 15.112624 184.207520 0.000000 0.000000 0.000000 29.379673 -42.997899 52.857014 -94.731725 -9.696960 29.277650 71.623044 -17.445317 -12.745702 2.620105 0.651053 -23.722400 -4.364187 4.543074 -16.108958 0.000000 0.000000 0.000000 26.730268 -47.110615 52.493607 -91.790461 4.920596 -57.188395 115.232873 30.570199 -2.766191 53.395205 37.198805 87.556748 17.094053 -5.146254 10.778922 0.000000 0.000000 0.000000 28.614878 -47.806038 52.568493 11.218796 -2.815644 -2.405050 18.422861 -3.423830 -2.008680 0.002186 3.105395 1.292329 0.000000 0.000000 0.000000 14.736464 -4.442455 -2.738395 0.075466 4.556342 -0.036404 -20.476678 23.887101 -6.412779 0.000000 0.000000 0.000000 16.615099 -4.277182 -2.615887 0.669584 -0.875663 -18.698642 4.275832 -4.527750 0.811890 18.911218 8.380794 -41.385930 32.862622 -25.031822 -3.046100 0.000000 0.000000 0.000000 17.384527 -3.796459 -2.450932 1.392153 18.712154 9.335597 9.937315 7.496347 5.583896 -18.382139 -27.680405 42.267840 -29.507227 39.682706 7.910763 0.000000 0.000000 0.000000 
4.731001 15.665647 189.045670 0.000000 0.000000 0.000000 25.560735 -41.886545 42.586800 -103.631394 -9.459427 33.934101 87.867030 -20.217638 -12.194772 10.075500 -5.782940 -15.204442 -11.544311 5.171346 -12.539360 0.000000 0.000000 0.000000 22.247280 -45.256202 41.379332 -81.103893 -4.241957 -58.288554 109.969789 33.523986 -0.037936 47.733030 29.984537 93.057209 19.031680 -4.848261 9.220244 0.000000 0.000000 0.000000 25.001392 -44.000468 43.038914 10.612618 -1.894197 -2.187243 16.473002 -2.934747 -2.518720 0.266463 2.965253 1.209956 0.000000 0.000000 0.000000 14.034925 -3.864797 -3.278366 -3.277219 5.944061 0.773594 -21.860729 24.972893 -3.949824 0.000000 0.000000 0.000000 15.202644 -3.795893 -3.401994 0.732044 -0.471134 -16.315780 5.042546 -4.599326 -0.879428 16.145406 10.483513 -31.163090 30.187619 -27.288914 -2.997921 0.000000 0.000000 0.000000 15.898981 -3.135646 -3.048687 1.083389 17.282002 9.759982 11.359348 7.743214 4.969603 -6.283055 -27.902742 60.128327 -32.431033 55.401150 14.766999 0.000000 0.000000 0.000000 
3.838868 16.459003 193.748581 0.000000 0.000000 0.000000 22.735289 -39.637524 32.779543 -109.667833 -8.255860 36.345014 100.482328 -20.180596 -10.486332 14.825926 -8.868772 -3.317999 -17.106682 5.041407 -8.501769 0.000000 0.000000 0.000000 19.885454 -43.224582 32.484417 -66.361763 -16.565647 -52.957704 100.376071 36.960056 3.504397 42.234902 25.349489 97.519610 15.705151 -4.044908 7.970243 0.000000 0.000000 0.000000 24.390769 -39.933671 35.006570 9.032808 -1.724683 -2.066990 14.509914 -3.211976 -2.913552 0.349686 2.591482 0.513289 0.000000 0.000000 0.000000 13.284685 -4.025903 -3.720779 -5.730141 7.692269 1.168313 -22.353606 26.866349 -1.629621 0.000000 0.000000 0.000000 13.902000 -4.079438 -3.890226 0.782794 -0.778008 -13.287587 5.336389 -2.466985 -1.939703 9.157020 10.894939 -20.509692 24.592924 -26.624149 -4.470149 0.000000 0.000000 0.000000 14.374731 -3.360710 -3.522605 0.818046 16.153239 9.764160 12.472915 8.003332 4.572077 2.210027 -24.209191 72.900392 -45.054018 71.596433 31.567137 0.000000 0.000000 0.000000 
2.849778 17.443012 198.159897 0.000000 0.000000 0.000000 22.011137 -36.605654 24.898874 -112.442112 -5.376701 35.857947 107.823641 -17.927042 -9.024611 12.179569 -9.018271 9.021461 -17.223835 4.396883 -5.463686 0.000000 0.000000 0.000000 20.443540 -41.109334 26.270144 -45.910950 -26.339882 -38.976577 83.799174 40.621341 8.619968 36.637517 24.222457 100.464153 5.912009 -2.837554 7.376970 0.000000 0.000000 0.000000 26.293028 -36.603073 28.562106 6.621073 -2.041321 -2.069894 12.732962 -3.876030 -3.245990 0.681031 2.162445 -0.350194 0.000000 0.000000 0.000000 12.439030 -4.594540 -4.131134 -7.322436 9.495530 1.238990 -22.146345 29.046670 0.530939 0.000000 0.000000 0.000000 12.717095 -4.762476 -4.149710 0.800726 -2.177475 -10.167238 4.465094 0.632372 -2.256981 0.201028 7.872230 -12.097225 16.983574 -23.116943 -6.598009 0.000000 0.000000 0.000000 12.947297 -4.105059 -3.934437 0.534340 15.643659 9.714404 12.757590 8.060834 3.870309 5.684328 -19.105752 79.294528 -93.189482 80.805591 83.603694 0.000000 0.000000 0.000000 
1.943590 18.549788 202.369904 0.000000 0.000000 0.000000 22.864603 -33.489937 19.270933 -111.732175 -0.641430 32.702563 109.627350 -15.096091 -7.726432 2.217079 -9.152612 18.270860 -13.961876 3.733728 -3.135939 0.000000 0.000000 0.000000 22.422206 -39.215941 22.072513 -26.888945 -27.397057 -23.473180 67.150055 44.100356 13.381091 35.008462 27.990832 98.294154 -1.348385 -0.692367 9.318230 0.000000 0.000000 0.000000 29.203550 -34.349141 23.687381 3.942060 -2.552464 -2.302392 11.317359 -4.547761 -3.619855 0.842969 1.797589 -0.935669 0.000000 0.000000 0.000000 11.460210 -5.197470 -4.587731 -8.322311 10.957260 0.990747 -21.580080 30.943305 2.356489 0.000000 0.000000 0.000000 11.605087 -5.387765 -4.345936 0.820820 -4.725790 -7.794550 3.014742 3.000349 -1.589664 -7.683518 1.410515 -9.104213 9.409787 -18.602946 -7.885577 0.000000 0.000000 0.000000 11.815408 -4.837069 -4.357407 0.168922 15.691982 9.925707 12.604435 8.133154 3.230616 5.179533 -13.471368 80.800496 -142.581073 78.597350 136.263845 0.000000 0.000000 0.000000 
